<svg width="1280" height="225" viewBox="0 0 1280 225" fill="none" xmlns="http://www.w3.org/2000/svg">
<g clip-path="url(#clip0_1392_13592)">
<circle cx="124" cy="114" r="50" fill="#F8F7F6"/>
<circle cx="124" cy="114" r="49.5" stroke="#00B596" stroke-opacity="0.5"/>
<g clip-path="url(#clip1_1392_13592)">
<path d="M123.5 64C110.372 64 97.7813 69.2152 88.4982 78.4982C79.2152 87.7813 74 100.372 74 113.5C74 126.628 79.2152 139.219 88.4982 148.502C97.7813 157.785 110.372 163 123.5 163C136.628 163 149.219 157.785 158.502 148.502C167.785 139.219 173 126.628 173 113.5C173 100.372 167.785 87.7813 158.502 78.4982C149.219 69.2152 136.628 64 123.5 64V64ZM139.56 131.87C139.56 133.795 140.33 135.335 141.54 135.5C142.75 135.665 144.125 134.29 144.73 132.2L145.83 132.64C147.746 133.664 149.251 135.317 150.093 137.32C150.934 139.323 151.06 141.555 150.45 143.64C150.046 145.491 149.048 147.158 147.608 148.39C146.168 149.621 144.366 150.348 142.475 150.46C139.78 143.805 130.87 150.79 122.895 149.25C121.237 148.833 119.705 148.019 118.431 146.879C117.157 145.739 116.178 144.307 115.58 142.705C122.125 142.1 131.255 133.19 139.56 131.87ZM118 125.985C120.443 125.981 122.802 125.094 124.642 123.486C126.482 121.879 127.678 119.66 128.01 117.24C129.176 118.68 129.78 120.494 129.709 122.345C129.639 124.196 128.898 125.959 127.625 127.305C126.932 127.912 126.117 128.363 125.235 128.627C124.353 128.892 123.424 128.964 122.512 128.839C121.599 128.714 120.724 128.394 119.946 127.902C119.168 127.41 118.504 126.756 118 125.985ZM134.5 121.805C136.755 123.95 151 121.475 153.86 127.8C148.635 126.7 137.635 131.155 134.775 121.86L134.5 121.805ZM127.515 93.975V95.46C123.94 91.225 120.2 89.575 118.66 92.325C117.12 95.075 124.16 98.43 122.84 102.665C121.52 106.9 115.855 105.745 112.5 111.52C109.145 117.295 109.805 124.83 119.32 131.705C116.111 131.349 113.078 130.06 110.595 127.997C108.112 125.935 106.288 123.189 105.35 120.1C103.15 113.5 104.855 107.67 101.06 106.57C96 105.03 90.5 111.905 90.5 117.9C83.57 110.97 90.775 102.17 83.9 94.91C88.42 85.2857 96.3161 77.6558 106.09 73.4685C115.863 69.2813 126.834 68.8281 136.92 72.195C133.924 74.9717 131.54 78.3429 129.921 82.0931C128.301 85.8434 127.482 89.8902 127.515 93.975Z" fill="#00B596"/>
</g>
<circle cx="155.5" cy="145.5" r="17.5" fill="white"/>
<circle cx="155.5" cy="145.5" r="17" stroke="#00B596" stroke-opacity="0.5"/>
<path d="M150.828 144.875L151.534 144.167L150.88 143.515L150.178 144.115L150.828 144.875ZM154.966 149L154.26 149.708L154.966 150.412L155.672 149.708L154.966 149ZM166 138L154.842 140.971L162.994 149.149L166 138ZM146.65 149.76L151.477 145.635L150.178 144.115L145.35 148.24L146.65 149.76ZM150.122 145.583L154.26 149.708L155.672 148.292L151.534 144.167L150.122 145.583ZM155.672 149.708L160.332 145.062L158.92 143.646L154.26 148.292L155.672 149.708Z" fill="#00B596"/>
</g>
<path d="M200.663 96.9091V110H198.291V96.9091H200.663ZM205.442 104.247V110H203.128V100.182H205.34V101.85H205.455C205.681 101.3 206.041 100.864 206.535 100.54C207.034 100.216 207.65 100.054 208.383 100.054C209.06 100.054 209.65 100.199 210.153 100.489C210.66 100.778 211.052 101.198 211.329 101.748C211.611 102.298 211.749 102.964 211.745 103.749V110H209.431V104.107C209.431 103.45 209.26 102.937 208.92 102.566C208.583 102.195 208.116 102.01 207.52 102.01C207.115 102.01 206.755 102.099 206.439 102.278C206.128 102.453 205.883 102.707 205.704 103.039C205.53 103.371 205.442 103.774 205.442 104.247ZM218.38 110.192C217.4 110.192 216.558 109.977 215.855 109.546C215.156 109.116 214.617 108.521 214.238 107.763C213.863 107 213.675 106.122 213.675 105.129C213.675 104.132 213.867 103.252 214.251 102.489C214.634 101.722 215.175 101.126 215.874 100.7C216.577 100.269 217.408 100.054 218.367 100.054C219.164 100.054 219.869 100.201 220.483 100.495C221.101 100.785 221.593 101.196 221.959 101.729C222.326 102.257 222.535 102.875 222.586 103.582H220.374C220.285 103.109 220.072 102.715 219.735 102.4C219.403 102.08 218.957 101.92 218.399 101.92C217.926 101.92 217.51 102.048 217.153 102.304C216.795 102.555 216.515 102.918 216.315 103.391C216.119 103.864 216.021 104.43 216.021 105.091C216.021 105.76 216.119 106.335 216.315 106.817C216.511 107.294 216.786 107.663 217.14 107.923C217.498 108.178 217.917 108.306 218.399 108.306C218.74 108.306 219.045 108.242 219.313 108.114C219.586 107.982 219.814 107.793 219.997 107.545C220.18 107.298 220.306 106.998 220.374 106.644H222.586C222.53 107.339 222.326 107.955 221.972 108.491C221.618 109.024 221.137 109.442 220.528 109.744C219.918 110.043 219.202 110.192 218.38 110.192ZM224.486 110V100.182H226.729V101.818H226.832C227.011 101.251 227.317 100.815 227.752 100.508C228.191 100.197 228.692 100.041 229.254 100.041C229.382 100.041 229.525 100.048 229.683 100.06C229.844 100.069 229.979 100.084 230.085 100.105V102.234C229.987 102.2 229.832 102.17 229.619 102.144C229.41 102.114 229.207 102.099 229.011 102.099C228.589 102.099 228.21 102.191 227.874 102.374C227.541 102.553 227.279 102.803 227.087 103.122C226.896 103.442 226.8 103.81 226.8 104.228V110H224.486ZM235.565 110.192C234.58 110.192 233.73 109.987 233.014 109.578C232.303 109.165 231.755 108.581 231.372 107.827C230.988 107.068 230.796 106.175 230.796 105.148C230.796 104.138 230.988 103.252 231.372 102.489C231.759 101.722 232.301 101.126 232.995 100.7C233.69 100.269 234.506 100.054 235.443 100.054C236.048 100.054 236.619 100.152 237.156 100.348C237.698 100.54 238.175 100.838 238.588 101.243C239.006 101.648 239.334 102.163 239.573 102.79C239.811 103.412 239.931 104.153 239.931 105.014V105.724H231.883V104.164H237.713C237.708 103.721 237.612 103.327 237.425 102.982C237.237 102.632 236.975 102.357 236.639 102.157C236.306 101.957 235.919 101.857 235.475 101.857C235.002 101.857 234.587 101.972 234.229 102.202C233.871 102.428 233.592 102.726 233.392 103.097C233.195 103.463 233.095 103.866 233.091 104.305V105.666C233.091 106.237 233.195 106.727 233.404 107.136C233.613 107.541 233.905 107.852 234.28 108.07C234.655 108.283 235.094 108.389 235.597 108.389C235.933 108.389 236.238 108.342 236.511 108.249C236.784 108.151 237.02 108.008 237.22 107.82C237.421 107.633 237.572 107.401 237.674 107.124L239.835 107.366C239.698 107.937 239.438 108.436 239.055 108.862C238.676 109.284 238.19 109.612 237.597 109.847C237.005 110.077 236.328 110.192 235.565 110.192ZM244.713 110.198C244.091 110.198 243.531 110.087 243.032 109.866C242.538 109.64 242.146 109.308 241.856 108.869C241.571 108.43 241.428 107.888 241.428 107.245C241.428 106.691 241.53 106.233 241.735 105.871C241.939 105.509 242.218 105.219 242.572 105.001C242.926 104.784 243.324 104.62 243.767 104.509C244.215 104.394 244.677 104.311 245.154 104.26C245.73 104.2 246.196 104.147 246.554 104.1C246.912 104.049 247.172 103.972 247.334 103.87C247.5 103.763 247.583 103.599 247.583 103.378V103.339C247.583 102.858 247.441 102.485 247.155 102.221C246.87 101.957 246.458 101.825 245.922 101.825C245.355 101.825 244.905 101.948 244.573 102.195C244.245 102.442 244.023 102.734 243.908 103.071L241.748 102.764C241.918 102.168 242.199 101.669 242.591 101.268C242.983 100.864 243.463 100.561 244.029 100.361C244.596 100.156 245.223 100.054 245.909 100.054C246.382 100.054 246.853 100.109 247.321 100.22C247.79 100.331 248.218 100.514 248.606 100.77C248.994 101.021 249.305 101.364 249.539 101.799C249.778 102.234 249.897 102.777 249.897 103.429V110H247.673V108.651H247.596C247.456 108.924 247.257 109.18 247.002 109.418C246.75 109.653 246.433 109.842 246.049 109.987C245.67 110.128 245.225 110.198 244.713 110.198ZM245.314 108.498C245.779 108.498 246.181 108.406 246.522 108.223C246.863 108.036 247.125 107.788 247.309 107.482C247.496 107.175 247.59 106.84 247.59 106.478V105.321C247.517 105.381 247.394 105.436 247.219 105.487C247.049 105.538 246.857 105.583 246.644 105.621C246.431 105.66 246.22 105.694 246.011 105.724C245.802 105.754 245.621 105.779 245.468 105.8C245.123 105.847 244.814 105.924 244.541 106.031C244.268 106.137 244.053 106.286 243.895 106.478C243.738 106.665 243.659 106.908 243.659 107.207C243.659 107.633 243.814 107.955 244.125 108.172C244.436 108.389 244.833 108.498 245.314 108.498ZM259.984 102.777L257.875 103.007C257.815 102.794 257.711 102.594 257.561 102.406C257.417 102.219 257.221 102.067 256.973 101.952C256.726 101.837 256.424 101.78 256.066 101.78C255.584 101.78 255.179 101.884 254.851 102.093C254.527 102.302 254.368 102.572 254.372 102.905C254.368 103.19 254.472 103.423 254.685 103.602C254.902 103.781 255.26 103.928 255.759 104.043L257.434 104.401C258.363 104.601 259.053 104.918 259.505 105.353C259.961 105.788 260.191 106.357 260.195 107.06C260.191 107.678 260.01 108.223 259.652 108.696C259.298 109.165 258.806 109.531 258.175 109.795C257.544 110.06 256.82 110.192 256.002 110.192C254.8 110.192 253.833 109.94 253.1 109.438C252.367 108.93 251.93 108.225 251.789 107.322L254.046 107.104C254.148 107.548 254.365 107.882 254.698 108.108C255.03 108.334 255.463 108.447 255.995 108.447C256.545 108.447 256.986 108.334 257.319 108.108C257.655 107.882 257.824 107.603 257.824 107.271C257.824 106.989 257.715 106.757 257.498 106.574C257.284 106.391 256.952 106.25 256.5 106.152L254.826 105.8C253.884 105.604 253.187 105.274 252.735 104.81C252.284 104.341 252.06 103.749 252.064 103.033C252.06 102.428 252.224 101.903 252.556 101.46C252.893 101.013 253.36 100.668 253.956 100.425C254.557 100.178 255.25 100.054 256.034 100.054C257.184 100.054 258.09 100.299 258.75 100.789C259.415 101.279 259.826 101.942 259.984 102.777ZM262.103 110V100.182H264.417V110H262.103ZM263.266 98.7884C262.9 98.7884 262.585 98.6669 262.32 98.424C262.056 98.1768 261.924 97.8807 261.924 97.5355C261.924 97.1861 262.056 96.8899 262.32 96.647C262.585 96.3999 262.9 96.2763 263.266 96.2763C263.637 96.2763 263.952 96.3999 264.212 96.647C264.477 96.8899 264.609 97.1861 264.609 97.5355C264.609 97.8807 264.477 98.1768 264.212 98.424C263.952 98.6669 263.637 98.7884 263.266 98.7884ZM269.11 104.247V110H266.796V100.182H269.008V101.85H269.123C269.349 101.3 269.709 100.864 270.203 100.54C270.702 100.216 271.318 100.054 272.051 100.054C272.728 100.054 273.318 100.199 273.821 100.489C274.328 100.778 274.72 101.198 274.997 101.748C275.279 102.298 275.417 102.964 275.413 103.749V110H273.099V104.107C273.099 103.45 272.928 102.937 272.588 102.566C272.251 102.195 271.784 102.01 271.188 102.01C270.783 102.01 270.423 102.099 270.107 102.278C269.796 102.453 269.551 102.707 269.372 103.039C269.198 103.371 269.11 103.774 269.11 104.247ZM282.035 113.886C281.204 113.886 280.49 113.773 279.894 113.548C279.297 113.326 278.818 113.028 278.455 112.653C278.093 112.278 277.842 111.862 277.701 111.406L279.785 110.901C279.879 111.093 280.015 111.283 280.194 111.47C280.373 111.662 280.614 111.82 280.916 111.943C281.223 112.071 281.609 112.135 282.073 112.135C282.73 112.135 283.273 111.975 283.703 111.656C284.134 111.34 284.349 110.82 284.349 110.096V108.236H284.234C284.115 108.474 283.94 108.719 283.71 108.971C283.484 109.222 283.183 109.433 282.808 109.604C282.438 109.774 281.971 109.859 281.409 109.859C280.654 109.859 279.97 109.683 279.357 109.329C278.747 108.971 278.262 108.438 277.899 107.731C277.541 107.019 277.362 106.129 277.362 105.059C277.362 103.981 277.541 103.071 277.899 102.33C278.262 101.584 278.749 101.019 279.363 100.636C279.977 100.248 280.661 100.054 281.415 100.054C281.99 100.054 282.463 100.152 282.834 100.348C283.209 100.54 283.507 100.772 283.729 101.045C283.95 101.313 284.119 101.567 284.234 101.805H284.362V100.182H286.644V110.16C286.644 110.999 286.443 111.694 286.043 112.244C285.642 112.793 285.095 113.205 284.4 113.477C283.705 113.75 282.917 113.886 282.035 113.886ZM282.054 108.044C282.544 108.044 282.962 107.925 283.307 107.686C283.652 107.447 283.914 107.104 284.093 106.657C284.272 106.21 284.362 105.673 284.362 105.046C284.362 104.428 284.272 103.887 284.093 103.423C283.919 102.958 283.659 102.598 283.313 102.342C282.972 102.082 282.553 101.952 282.054 101.952C281.539 101.952 281.108 102.087 280.763 102.355C280.418 102.624 280.158 102.992 279.983 103.461C279.808 103.925 279.721 104.454 279.721 105.046C279.721 105.647 279.808 106.173 279.983 106.625C280.162 107.072 280.424 107.422 280.769 107.673C281.119 107.92 281.547 108.044 282.054 108.044ZM304.34 96.9091V110H302.231L296.062 101.083H295.954V110H293.582V96.9091H295.704L301.866 105.832H301.981V96.9091H304.34ZM313.08 105.871V100.182H315.393V110H313.15V108.255H313.048C312.826 108.805 312.462 109.254 311.955 109.604C311.452 109.953 310.832 110.128 310.094 110.128C309.451 110.128 308.882 109.985 308.388 109.7C307.898 109.41 307.514 108.99 307.237 108.44C306.96 107.886 306.822 107.217 306.822 106.433V100.182H309.136V106.075C309.136 106.697 309.306 107.192 309.647 107.558C309.988 107.925 310.435 108.108 310.989 108.108C311.33 108.108 311.661 108.025 311.98 107.859C312.3 107.692 312.562 107.445 312.766 107.117C312.975 106.785 313.08 106.369 313.08 105.871ZM317.773 110V100.182H319.985V101.85H320.1C320.304 101.288 320.643 100.849 321.116 100.533C321.589 100.214 322.154 100.054 322.81 100.054C323.475 100.054 324.035 100.216 324.491 100.54C324.951 100.859 325.275 101.296 325.463 101.85H325.565C325.782 101.305 326.149 100.87 326.664 100.546C327.184 100.218 327.8 100.054 328.512 100.054C329.415 100.054 330.152 100.339 330.723 100.911C331.294 101.482 331.58 102.315 331.58 103.41V110H329.259V103.768C329.259 103.158 329.097 102.713 328.774 102.432C328.45 102.146 328.053 102.004 327.585 102.004C327.026 102.004 326.59 102.178 326.274 102.528C325.963 102.873 325.808 103.322 325.808 103.876V110H323.539V103.672C323.539 103.165 323.385 102.76 323.078 102.457C322.776 102.155 322.379 102.004 321.889 102.004C321.557 102.004 321.254 102.089 320.982 102.259C320.709 102.425 320.492 102.662 320.33 102.969C320.168 103.271 320.087 103.625 320.087 104.03V110H317.773ZM334.029 110V96.9091H336.343V101.805H336.439C336.559 101.567 336.727 101.313 336.944 101.045C337.162 100.772 337.456 100.54 337.826 100.348C338.197 100.152 338.67 100.054 339.245 100.054C340.004 100.054 340.688 100.248 341.297 100.636C341.911 101.019 342.397 101.588 342.755 102.342C343.117 103.092 343.298 104.013 343.298 105.104C343.298 106.182 343.121 107.098 342.767 107.852C342.414 108.607 341.932 109.182 341.323 109.578C340.713 109.974 340.023 110.173 339.252 110.173C338.689 110.173 338.223 110.079 337.852 109.891C337.481 109.704 337.183 109.478 336.957 109.214C336.735 108.945 336.563 108.692 336.439 108.453H336.305V110H334.029ZM336.299 105.091C336.299 105.726 336.388 106.282 336.567 106.759C336.75 107.237 337.012 107.609 337.353 107.878C337.699 108.142 338.116 108.274 338.606 108.274C339.118 108.274 339.546 108.138 339.891 107.865C340.236 107.588 340.496 107.211 340.671 106.734C340.85 106.252 340.939 105.705 340.939 105.091C340.939 104.482 340.852 103.94 340.677 103.467C340.502 102.994 340.243 102.624 339.897 102.355C339.552 102.087 339.122 101.952 338.606 101.952C338.112 101.952 337.692 102.082 337.347 102.342C337.002 102.602 336.74 102.967 336.561 103.435C336.386 103.904 336.299 104.456 336.299 105.091ZM349.612 110.192C348.627 110.192 347.777 109.987 347.061 109.578C346.35 109.165 345.802 108.581 345.419 107.827C345.035 107.068 344.843 106.175 344.843 105.148C344.843 104.138 345.035 103.252 345.419 102.489C345.806 101.722 346.347 101.126 347.042 100.7C347.737 100.269 348.553 100.054 349.49 100.054C350.095 100.054 350.666 100.152 351.203 100.348C351.744 100.54 352.222 100.838 352.635 101.243C353.053 101.648 353.381 102.163 353.619 102.79C353.858 103.412 353.977 104.153 353.977 105.014V105.724H345.93V104.164H351.759C351.755 103.721 351.659 103.327 351.472 102.982C351.284 102.632 351.022 102.357 350.686 102.157C350.353 101.957 349.965 101.857 349.522 101.857C349.049 101.857 348.634 101.972 348.276 102.202C347.918 102.428 347.639 102.726 347.438 103.097C347.242 103.463 347.142 103.866 347.138 104.305V105.666C347.138 106.237 347.242 106.727 347.451 107.136C347.66 107.541 347.952 107.852 348.327 108.07C348.702 108.283 349.141 108.389 349.644 108.389C349.98 108.389 350.285 108.342 350.558 108.249C350.83 108.151 351.067 108.008 351.267 107.82C351.468 107.633 351.619 107.401 351.721 107.124L353.882 107.366C353.745 107.937 353.485 108.436 353.102 108.862C352.722 109.284 352.237 109.612 351.644 109.847C351.052 110.077 350.374 110.192 349.612 110.192ZM355.935 110V100.182H358.179V101.818H358.281C358.46 101.251 358.767 100.815 359.201 100.508C359.64 100.197 360.141 100.041 360.703 100.041C360.831 100.041 360.974 100.048 361.132 100.06C361.294 100.069 361.428 100.084 361.534 100.105V102.234C361.436 102.2 361.281 102.17 361.068 102.144C360.859 102.114 360.657 102.099 360.461 102.099C360.039 102.099 359.659 102.191 359.323 102.374C358.99 102.553 358.728 102.803 358.537 103.122C358.345 103.442 358.249 103.81 358.249 104.228V110H355.935ZM371.819 110.192C370.86 110.192 370.029 109.981 369.326 109.559C368.623 109.137 368.078 108.547 367.69 107.788C367.306 107.03 367.115 106.143 367.115 105.129C367.115 104.115 367.306 103.227 367.69 102.464C368.078 101.701 368.623 101.109 369.326 100.687C370.029 100.265 370.86 100.054 371.819 100.054C372.778 100.054 373.609 100.265 374.312 100.687C375.015 101.109 375.559 101.701 375.942 102.464C376.33 103.227 376.524 104.115 376.524 105.129C376.524 106.143 376.33 107.03 375.942 107.788C375.559 108.547 375.015 109.137 374.312 109.559C373.609 109.981 372.778 110.192 371.819 110.192ZM371.832 108.338C372.352 108.338 372.787 108.195 373.136 107.91C373.485 107.62 373.745 107.232 373.916 106.746C374.091 106.261 374.178 105.719 374.178 105.123C374.178 104.522 374.091 103.979 373.916 103.493C373.745 103.003 373.485 102.613 373.136 102.323C372.787 102.033 372.352 101.888 371.832 101.888C371.299 101.888 370.856 102.033 370.502 102.323C370.153 102.613 369.891 103.003 369.716 103.493C369.546 103.979 369.461 104.522 369.461 105.123C369.461 105.719 369.546 106.261 369.716 106.746C369.891 107.232 370.153 107.62 370.502 107.91C370.856 108.195 371.299 108.338 371.832 108.338ZM383.461 100.182V101.972H377.657V100.182H383.461ZM379.108 110V99.255C379.108 98.5945 379.244 98.0447 379.517 97.6058C379.794 97.1669 380.165 96.8388 380.629 96.6214C381.094 96.4041 381.609 96.2955 382.176 96.2955C382.577 96.2955 382.932 96.3274 383.243 96.3913C383.555 96.4553 383.785 96.5128 383.934 96.5639L383.474 98.3537C383.376 98.3239 383.252 98.294 383.103 98.2642C382.954 98.2301 382.787 98.2131 382.604 98.2131C382.174 98.2131 381.869 98.3175 381.69 98.5263C381.515 98.7308 381.428 99.0249 381.428 99.4084V110H379.108ZM200.663 118.909V132H198.291V118.909H200.663ZM205.442 126.247V132H203.128V122.182H205.34V123.85H205.455C205.681 123.3 206.041 122.864 206.535 122.54C207.034 122.216 207.65 122.054 208.383 122.054C209.06 122.054 209.65 122.199 210.153 122.489C210.66 122.778 211.052 123.198 211.329 123.748C211.611 124.298 211.749 124.964 211.745 125.749V132H209.431V126.107C209.431 125.45 209.26 124.937 208.92 124.566C208.583 124.195 208.116 124.01 207.52 124.01C207.115 124.01 206.755 124.099 206.439 124.278C206.128 124.453 205.883 124.707 205.704 125.039C205.53 125.371 205.442 125.774 205.442 126.247ZM219 122.182V123.972H213.356V122.182H219ZM214.749 119.83H217.063V129.047C217.063 129.358 217.11 129.597 217.204 129.763C217.302 129.925 217.43 130.036 217.587 130.095C217.745 130.155 217.92 130.185 218.111 130.185C218.256 130.185 218.388 130.174 218.508 130.153C218.631 130.131 218.725 130.112 218.789 130.095L219.179 131.904C219.055 131.947 218.878 131.994 218.648 132.045C218.422 132.096 218.145 132.126 217.817 132.134C217.238 132.151 216.716 132.064 216.251 131.872C215.787 131.676 215.418 131.374 215.145 130.964C214.877 130.555 214.745 130.044 214.749 129.43V119.83ZM225.176 132.192C224.192 132.192 223.342 131.987 222.626 131.578C221.914 131.165 221.366 130.581 220.983 129.827C220.599 129.068 220.408 128.175 220.408 127.148C220.408 126.138 220.599 125.252 220.983 124.489C221.371 123.722 221.912 123.126 222.607 122.7C223.301 122.269 224.117 122.054 225.055 122.054C225.66 122.054 226.231 122.152 226.768 122.348C227.309 122.54 227.786 122.838 228.2 123.243C228.617 123.648 228.945 124.163 229.184 124.79C229.423 125.412 229.542 126.153 229.542 127.014V127.724H221.494V126.164H227.324C227.32 125.721 227.224 125.327 227.036 124.982C226.849 124.632 226.587 124.357 226.25 124.157C225.918 123.957 225.53 123.857 225.087 123.857C224.614 123.857 224.198 123.972 223.84 124.202C223.482 124.428 223.203 124.726 223.003 125.097C222.807 125.463 222.707 125.866 222.702 126.305V127.666C222.702 128.237 222.807 128.727 223.016 129.136C223.224 129.541 223.516 129.852 223.891 130.07C224.266 130.283 224.705 130.389 225.208 130.389C225.545 130.389 225.849 130.342 226.122 130.249C226.395 130.151 226.631 130.008 226.832 129.82C227.032 129.633 227.183 129.401 227.286 129.124L229.446 129.366C229.31 129.937 229.05 130.436 228.666 130.862C228.287 131.284 227.801 131.612 227.209 131.847C226.616 132.077 225.939 132.192 225.176 132.192ZM231.499 132V122.182H233.743V123.818H233.845C234.024 123.251 234.331 122.815 234.766 122.508C235.205 122.197 235.705 122.041 236.268 122.041C236.396 122.041 236.539 122.048 236.696 122.06C236.858 122.069 236.992 122.084 237.099 122.105V124.234C237.001 124.2 236.845 124.17 236.632 124.144C236.423 124.114 236.221 124.099 236.025 124.099C235.603 124.099 235.224 124.191 234.887 124.374C234.555 124.553 234.293 124.803 234.101 125.122C233.909 125.442 233.813 125.81 233.813 126.228V132H231.499ZM240.95 126.247V132H238.636V122.182H240.848V123.85H240.963C241.189 123.3 241.549 122.864 242.043 122.54C242.542 122.216 243.157 122.054 243.89 122.054C244.568 122.054 245.158 122.199 245.661 122.489C246.168 122.778 246.56 123.198 246.837 123.748C247.118 124.298 247.257 124.964 247.253 125.749V132H244.939V126.107C244.939 125.45 244.768 124.937 244.427 124.566C244.091 124.195 243.624 124.01 243.028 124.01C242.623 124.01 242.263 124.099 241.947 124.278C241.636 124.453 241.391 124.707 241.212 125.039C241.037 125.371 240.95 125.774 240.95 126.247ZM252.43 132.198C251.808 132.198 251.248 132.087 250.749 131.866C250.255 131.64 249.863 131.308 249.573 130.869C249.287 130.43 249.145 129.888 249.145 129.245C249.145 128.691 249.247 128.233 249.452 127.871C249.656 127.509 249.935 127.219 250.289 127.001C250.643 126.784 251.041 126.62 251.484 126.509C251.932 126.394 252.394 126.311 252.871 126.26C253.447 126.2 253.913 126.147 254.271 126.1C254.629 126.049 254.889 125.972 255.051 125.87C255.217 125.763 255.3 125.599 255.3 125.378V125.339C255.3 124.858 255.157 124.485 254.872 124.221C254.586 123.957 254.175 123.825 253.638 123.825C253.072 123.825 252.622 123.948 252.29 124.195C251.961 124.442 251.74 124.734 251.625 125.071L249.464 124.764C249.635 124.168 249.916 123.669 250.308 123.268C250.7 122.864 251.18 122.561 251.746 122.361C252.313 122.156 252.939 122.054 253.626 122.054C254.099 122.054 254.569 122.109 255.038 122.22C255.507 122.331 255.935 122.514 256.323 122.77C256.711 123.021 257.022 123.364 257.256 123.799C257.495 124.234 257.614 124.777 257.614 125.429V132H255.39V130.651H255.313C255.172 130.924 254.974 131.18 254.719 131.418C254.467 131.653 254.15 131.842 253.766 131.987C253.387 132.128 252.942 132.198 252.43 132.198ZM253.031 130.498C253.496 130.498 253.898 130.406 254.239 130.223C254.58 130.036 254.842 129.788 255.025 129.482C255.213 129.175 255.307 128.84 255.307 128.478V127.321C255.234 127.381 255.111 127.436 254.936 127.487C254.765 127.538 254.574 127.583 254.361 127.621C254.148 127.66 253.937 127.694 253.728 127.724C253.519 127.754 253.338 127.779 253.184 127.8C252.839 127.847 252.53 127.924 252.258 128.031C251.985 128.137 251.77 128.286 251.612 128.478C251.454 128.665 251.376 128.908 251.376 129.207C251.376 129.633 251.531 129.955 251.842 130.172C252.153 130.389 252.55 130.498 253.031 130.498ZM264.844 122.182V123.972H259.199V122.182H264.844ZM260.593 119.83H262.907V129.047C262.907 129.358 262.954 129.597 263.047 129.763C263.145 129.925 263.273 130.036 263.431 130.095C263.589 130.155 263.763 130.185 263.955 130.185C264.1 130.185 264.232 130.174 264.351 130.153C264.475 130.131 264.569 130.112 264.633 130.095L265.023 131.904C264.899 131.947 264.722 131.994 264.492 132.045C264.266 132.096 263.989 132.126 263.661 132.134C263.081 132.151 262.559 132.064 262.095 131.872C261.631 131.676 261.262 131.374 260.989 130.964C260.721 130.555 260.589 130.044 260.593 129.43V119.83ZM266.779 132V122.182H269.093V132H266.779ZM267.942 120.788C267.576 120.788 267.26 120.667 266.996 120.424C266.732 120.177 266.6 119.881 266.6 119.536C266.6 119.186 266.732 118.89 266.996 118.647C267.26 118.4 267.576 118.276 267.942 118.276C268.313 118.276 268.628 118.4 268.888 118.647C269.152 118.89 269.284 119.186 269.284 119.536C269.284 119.881 269.152 120.177 268.888 120.424C268.628 120.667 268.313 120.788 267.942 120.788ZM275.755 132.192C274.796 132.192 273.965 131.981 273.262 131.559C272.559 131.137 272.013 130.547 271.626 129.788C271.242 129.03 271.05 128.143 271.05 127.129C271.05 126.115 271.242 125.227 271.626 124.464C272.013 123.701 272.559 123.109 273.262 122.687C273.965 122.265 274.796 122.054 275.755 122.054C276.714 122.054 277.545 122.265 278.248 122.687C278.951 123.109 279.494 123.701 279.878 124.464C280.265 125.227 280.459 126.115 280.459 127.129C280.459 128.143 280.265 129.03 279.878 129.788C279.494 130.547 278.951 131.137 278.248 131.559C277.545 131.981 276.714 132.192 275.755 132.192ZM275.768 130.338C276.287 130.338 276.722 130.195 277.072 129.91C277.421 129.62 277.681 129.232 277.851 128.746C278.026 128.261 278.113 127.719 278.113 127.123C278.113 126.522 278.026 125.979 277.851 125.493C277.681 125.003 277.421 124.613 277.072 124.323C276.722 124.033 276.287 123.888 275.768 123.888C275.235 123.888 274.792 124.033 274.438 124.323C274.089 124.613 273.827 125.003 273.652 125.493C273.481 125.979 273.396 126.522 273.396 127.123C273.396 127.719 273.481 128.261 273.652 128.746C273.827 129.232 274.089 129.62 274.438 129.91C274.792 130.195 275.235 130.338 275.768 130.338ZM284.737 126.247V132H282.423V122.182H284.635V123.85H284.75C284.976 123.3 285.336 122.864 285.83 122.54C286.329 122.216 286.945 122.054 287.678 122.054C288.355 122.054 288.945 122.199 289.448 122.489C289.955 122.778 290.347 123.198 290.624 123.748C290.906 124.298 291.044 124.964 291.04 125.749V132H288.726V126.107C288.726 125.45 288.555 124.937 288.214 124.566C287.878 124.195 287.411 124.01 286.815 124.01C286.41 124.01 286.05 124.099 285.734 124.278C285.423 124.453 285.178 124.707 284.999 125.039C284.825 125.371 284.737 125.774 284.737 126.247ZM296.217 132.198C295.595 132.198 295.035 132.087 294.536 131.866C294.042 131.64 293.65 131.308 293.36 130.869C293.075 130.43 292.932 129.888 292.932 129.245C292.932 128.691 293.034 128.233 293.239 127.871C293.443 127.509 293.722 127.219 294.076 127.001C294.43 126.784 294.828 126.62 295.271 126.509C295.719 126.394 296.181 126.311 296.658 126.26C297.234 126.2 297.7 126.147 298.058 126.1C298.416 126.049 298.676 125.972 298.838 125.87C299.004 125.763 299.087 125.599 299.087 125.378V125.339C299.087 124.858 298.945 124.485 298.659 124.221C298.374 123.957 297.962 123.825 297.425 123.825C296.859 123.825 296.409 123.948 296.077 124.195C295.749 124.442 295.527 124.734 295.412 125.071L293.251 124.764C293.422 124.168 293.703 123.669 294.095 123.268C294.487 122.864 294.967 122.561 295.533 122.361C296.1 122.156 296.727 122.054 297.413 122.054C297.886 122.054 298.357 122.109 298.825 122.22C299.294 122.331 299.722 122.514 300.11 122.77C300.498 123.021 300.809 123.364 301.043 123.799C301.282 124.234 301.401 124.777 301.401 125.429V132H299.177V130.651H299.1C298.96 130.924 298.761 131.18 298.506 131.418C298.254 131.653 297.937 131.842 297.553 131.987C297.174 132.128 296.729 132.198 296.217 132.198ZM296.818 130.498C297.283 130.498 297.685 130.406 298.026 130.223C298.367 130.036 298.629 129.788 298.812 129.482C299 129.175 299.094 128.84 299.094 128.478V127.321C299.021 127.381 298.898 127.436 298.723 127.487C298.553 127.538 298.361 127.583 298.148 127.621C297.935 127.66 297.724 127.694 297.515 127.724C297.306 127.754 297.125 127.779 296.972 127.8C296.626 127.847 296.317 127.924 296.045 128.031C295.772 128.137 295.557 128.286 295.399 128.478C295.241 128.665 295.163 128.908 295.163 129.207C295.163 129.633 295.318 129.955 295.629 130.172C295.94 130.389 296.337 130.498 296.818 130.498ZM306.042 118.909V132H303.728V118.909H306.042ZM320.103 122.508C320.043 121.95 319.792 121.515 319.349 121.204C318.91 120.893 318.339 120.737 317.635 120.737C317.141 120.737 316.717 120.812 316.363 120.961C316.01 121.11 315.739 121.312 315.552 121.568C315.364 121.824 315.268 122.116 315.264 122.444C315.264 122.717 315.326 122.953 315.449 123.153C315.577 123.354 315.75 123.524 315.967 123.665C316.184 123.801 316.425 123.916 316.689 124.01C316.954 124.104 317.22 124.183 317.488 124.246L318.716 124.553C319.21 124.668 319.685 124.824 320.141 125.02C320.601 125.216 321.013 125.463 321.375 125.761C321.741 126.06 322.031 126.42 322.244 126.842C322.457 127.263 322.564 127.758 322.564 128.325C322.564 129.092 322.368 129.767 321.976 130.351C321.584 130.93 321.017 131.384 320.275 131.712C319.538 132.036 318.645 132.198 317.597 132.198C316.579 132.198 315.694 132.04 314.944 131.725C314.199 131.41 313.615 130.95 313.193 130.344C312.775 129.739 312.55 129.002 312.515 128.133H314.849C314.883 128.589 315.023 128.968 315.27 129.271C315.518 129.573 315.839 129.799 316.236 129.948C316.636 130.097 317.084 130.172 317.578 130.172C318.094 130.172 318.545 130.095 318.933 129.942C319.325 129.784 319.632 129.567 319.854 129.29C320.075 129.009 320.188 128.68 320.192 128.305C320.188 127.964 320.088 127.683 319.892 127.462C319.696 127.236 319.421 127.048 319.067 126.899C318.718 126.746 318.309 126.609 317.84 126.49L316.351 126.107C315.273 125.83 314.42 125.41 313.794 124.847C313.172 124.281 312.861 123.528 312.861 122.591C312.861 121.82 313.069 121.144 313.487 120.565C313.909 119.985 314.482 119.536 315.206 119.216C315.931 118.892 316.751 118.73 317.667 118.73C318.596 118.73 319.41 118.892 320.109 119.216C320.812 119.536 321.364 119.981 321.765 120.552C322.165 121.119 322.372 121.771 322.385 122.508H320.103ZM329.478 122.182V123.972H323.834V122.182H329.478ZM325.228 119.83H327.542V129.047C327.542 129.358 327.588 129.597 327.682 129.763C327.78 129.925 327.908 130.036 328.066 130.095C328.223 130.155 328.398 130.185 328.59 130.185C328.735 130.185 328.867 130.174 328.986 130.153C329.11 130.131 329.203 130.112 329.267 130.095L329.657 131.904C329.534 131.947 329.357 131.994 329.127 132.045C328.901 132.096 328.624 132.126 328.296 132.134C327.716 132.151 327.194 132.064 326.73 131.872C326.265 131.676 325.897 131.374 325.624 130.964C325.355 130.555 325.223 130.044 325.228 129.43V119.83ZM337.671 127.871V122.182H339.985V132H337.742V130.255H337.639C337.418 130.805 337.053 131.254 336.546 131.604C336.044 131.953 335.423 132.128 334.686 132.128C334.043 132.128 333.474 131.985 332.98 131.7C332.49 131.41 332.106 130.99 331.829 130.44C331.552 129.886 331.414 129.217 331.414 128.433V122.182H333.727V128.075C333.727 128.697 333.898 129.192 334.239 129.558C334.58 129.925 335.027 130.108 335.581 130.108C335.922 130.108 336.252 130.025 336.572 129.859C336.892 129.692 337.154 129.445 337.358 129.117C337.567 128.785 337.671 128.369 337.671 127.871ZM346.008 132.173C345.237 132.173 344.547 131.974 343.937 131.578C343.328 131.182 342.846 130.607 342.493 129.852C342.139 129.098 341.962 128.182 341.962 127.104C341.962 126.013 342.141 125.092 342.499 124.342C342.861 123.588 343.349 123.019 343.963 122.636C344.576 122.248 345.26 122.054 346.015 122.054C346.59 122.054 347.063 122.152 347.434 122.348C347.804 122.54 348.098 122.772 348.316 123.045C348.533 123.313 348.701 123.567 348.821 123.805H348.917V118.909H351.237V132H348.961V130.453H348.821C348.701 130.692 348.529 130.945 348.303 131.214C348.077 131.478 347.779 131.704 347.408 131.891C347.037 132.079 346.571 132.173 346.008 132.173ZM346.654 130.274C347.144 130.274 347.561 130.142 347.907 129.878C348.252 129.609 348.514 129.237 348.693 128.759C348.872 128.282 348.961 127.726 348.961 127.091C348.961 126.456 348.872 125.904 348.693 125.435C348.518 124.967 348.258 124.602 347.913 124.342C347.572 124.082 347.152 123.952 346.654 123.952C346.138 123.952 345.708 124.087 345.363 124.355C345.017 124.624 344.757 124.994 344.583 125.467C344.408 125.94 344.321 126.482 344.321 127.091C344.321 127.705 344.408 128.252 344.583 128.734C344.762 129.211 345.024 129.588 345.369 129.865C345.718 130.138 346.147 130.274 346.654 130.274ZM358.049 132.192C357.065 132.192 356.215 131.987 355.499 131.578C354.787 131.165 354.24 130.581 353.856 129.827C353.472 129.068 353.281 128.175 353.281 127.148C353.281 126.138 353.472 125.252 353.856 124.489C354.244 123.722 354.785 123.126 355.48 122.7C356.174 122.269 356.99 122.054 357.928 122.054C358.533 122.054 359.104 122.152 359.641 122.348C360.182 122.54 360.659 122.838 361.073 123.243C361.49 123.648 361.818 124.163 362.057 124.79C362.296 125.412 362.415 126.153 362.415 127.014V127.724H354.367V126.164H360.197C360.193 125.721 360.097 125.327 359.909 124.982C359.722 124.632 359.46 124.357 359.123 124.157C358.791 123.957 358.403 123.857 357.96 123.857C357.487 123.857 357.071 123.972 356.713 124.202C356.355 124.428 356.076 124.726 355.876 125.097C355.68 125.463 355.58 125.866 355.575 126.305V127.666C355.575 128.237 355.68 128.727 355.889 129.136C356.097 129.541 356.389 129.852 356.764 130.07C357.139 130.283 357.578 130.389 358.081 130.389C358.418 130.389 358.722 130.342 358.995 130.249C359.268 130.151 359.504 130.008 359.705 129.82C359.905 129.633 360.056 129.401 360.159 129.124L362.319 129.366C362.183 129.937 361.923 130.436 361.539 130.862C361.16 131.284 360.674 131.612 360.082 131.847C359.49 132.077 358.812 132.192 358.049 132.192ZM366.686 126.247V132H364.373V122.182H366.584V123.85H366.699C366.925 123.3 367.285 122.864 367.779 122.54C368.278 122.216 368.894 122.054 369.627 122.054C370.304 122.054 370.895 122.199 371.397 122.489C371.904 122.778 372.297 123.198 372.574 123.748C372.855 124.298 372.993 124.964 372.989 125.749V132H370.675V126.107C370.675 125.45 370.505 124.937 370.164 124.566C369.827 124.195 369.36 124.01 368.764 124.01C368.359 124.01 367.999 124.099 367.684 124.278C367.373 124.453 367.127 124.707 366.949 125.039C366.774 125.371 366.686 125.774 366.686 126.247ZM380.244 122.182V123.972H374.6V122.182H380.244ZM375.993 119.83H378.307V129.047C378.307 129.358 378.354 129.597 378.448 129.763C378.546 129.925 378.674 130.036 378.831 130.095C378.989 130.155 379.164 130.185 379.355 130.185C379.5 130.185 379.632 130.174 379.752 130.153C379.875 130.131 379.969 130.112 380.033 130.095L380.423 131.904C380.299 131.947 380.123 131.994 379.892 132.045C379.667 132.096 379.39 132.126 379.061 132.134C378.482 132.151 377.96 132.064 377.495 131.872C377.031 131.676 376.662 131.374 376.39 130.964C376.121 130.555 375.989 130.044 375.993 129.43V119.83ZM389.798 124.777L387.689 125.007C387.629 124.794 387.525 124.594 387.376 124.406C387.231 124.219 387.035 124.067 386.788 123.952C386.541 123.837 386.238 123.78 385.88 123.78C385.399 123.78 384.994 123.884 384.666 124.093C384.342 124.302 384.182 124.572 384.186 124.905C384.182 125.19 384.286 125.423 384.499 125.602C384.717 125.781 385.075 125.928 385.573 126.043L387.248 126.401C388.177 126.601 388.867 126.918 389.319 127.353C389.775 127.788 390.005 128.357 390.009 129.06C390.005 129.678 389.824 130.223 389.466 130.696C389.112 131.165 388.62 131.531 387.99 131.795C387.359 132.06 386.634 132.192 385.816 132.192C384.615 132.192 383.647 131.94 382.914 131.438C382.181 130.93 381.744 130.225 381.604 129.322L383.86 129.104C383.963 129.548 384.18 129.882 384.512 130.108C384.845 130.334 385.277 130.447 385.81 130.447C386.36 130.447 386.801 130.334 387.133 130.108C387.47 129.882 387.638 129.603 387.638 129.271C387.638 128.989 387.529 128.757 387.312 128.574C387.099 128.391 386.767 128.25 386.315 128.152L384.64 127.8C383.698 127.604 383.002 127.274 382.55 126.81C382.098 126.341 381.874 125.749 381.879 125.033C381.874 124.428 382.039 123.903 382.371 123.46C382.708 123.013 383.174 122.668 383.771 122.425C384.372 122.178 385.064 122.054 385.848 122.054C386.999 122.054 387.904 122.299 388.565 122.789C389.23 123.279 389.641 123.942 389.798 124.777Z" fill="#717171"/>
<g clip-path="url(#clip2_1392_13592)">
<path d="M533.044 67.0252L532.964 67.0262C521.081 67.2988 509.912 72.0722 501.517 80.4673C484.442 97.5425 483.633 124.818 499.09 142.861L483 158.95L488.05 164L504.139 147.911C512.461 155.053 522.943 158.948 534.025 158.948C546.304 158.948 557.85 154.166 566.532 145.483C574.925 137.091 579.698 125.926 579.973 114.044L580 67L533.044 67.0252ZM572.833 113.918C572.591 123.94 568.561 133.355 561.483 140.433C554.148 147.767 544.397 151.806 534.025 151.806C524.853 151.806 516.167 148.645 509.208 142.842L517.305 134.745H552.86V127.603H524.447L532.455 119.595H552.86V112.453H539.597L552.018 100.032L546.968 94.9818L534.547 107.403V94.14H527.405V114.545L519.397 122.553V94.14H512.255V129.695L504.16 137.791C491.477 122.551 492.278 99.8062 506.567 85.5174C513.648 78.4368 523.065 74.4069 533.089 74.1672L572.854 74.1457L572.833 113.918Z" fill="#00B596"/>
</g>
<path d="M604.972 111H602.441L607.05 97.9091H609.977L614.592 111H612.061L608.565 100.594H608.462L604.972 111ZM605.055 105.867H611.959V107.772H605.055V105.867ZM618.528 97.9091V111H616.214V97.9091H618.528ZM620.908 111V101.182H623.222V111H620.908ZM622.071 99.7884C621.705 99.7884 621.389 99.6669 621.125 99.424C620.861 99.1768 620.729 98.8807 620.729 98.5355C620.729 98.1861 620.861 97.8899 621.125 97.647C621.389 97.3999 621.705 97.2763 622.071 97.2763C622.442 97.2763 622.757 97.3999 623.017 97.647C623.281 97.8899 623.413 98.1861 623.413 98.5355C623.413 98.8807 623.281 99.1768 623.017 99.424C622.757 99.6669 622.442 99.7884 622.071 99.7884ZM629.871 114.886C629.04 114.886 628.326 114.773 627.73 114.548C627.133 114.326 626.654 114.028 626.291 113.653C625.929 113.278 625.678 112.862 625.537 112.406L627.621 111.901C627.715 112.093 627.851 112.283 628.03 112.47C628.209 112.662 628.45 112.82 628.752 112.943C629.059 113.071 629.445 113.135 629.909 113.135C630.566 113.135 631.109 112.975 631.539 112.656C631.97 112.34 632.185 111.82 632.185 111.096V109.236H632.07C631.95 109.474 631.776 109.719 631.546 109.971C631.32 110.222 631.019 110.433 630.644 110.604C630.274 110.774 629.807 110.859 629.244 110.859C628.49 110.859 627.806 110.683 627.193 110.329C626.583 109.971 626.097 109.438 625.735 108.731C625.377 108.019 625.198 107.129 625.198 106.059C625.198 104.981 625.377 104.071 625.735 103.33C626.097 102.584 626.585 102.019 627.199 101.636C627.813 101.248 628.497 101.054 629.251 101.054C629.826 101.054 630.299 101.152 630.67 101.348C631.045 101.54 631.343 101.772 631.565 102.045C631.786 102.313 631.955 102.567 632.07 102.805H632.198V101.182H634.48V111.16C634.48 111.999 634.279 112.694 633.879 113.244C633.478 113.793 632.931 114.205 632.236 114.477C631.541 114.75 630.753 114.886 629.871 114.886ZM629.89 109.044C630.38 109.044 630.798 108.925 631.143 108.686C631.488 108.447 631.75 108.104 631.929 107.657C632.108 107.21 632.198 106.673 632.198 106.046C632.198 105.428 632.108 104.887 631.929 104.423C631.754 103.958 631.494 103.598 631.149 103.342C630.808 103.082 630.389 102.952 629.89 102.952C629.374 102.952 628.944 103.087 628.599 103.355C628.254 103.624 627.994 103.992 627.819 104.461C627.644 104.925 627.557 105.454 627.557 106.046C627.557 106.647 627.644 107.173 627.819 107.625C627.998 108.072 628.26 108.422 628.605 108.673C628.955 108.92 629.383 109.044 629.89 109.044ZM639.165 105.247V111H636.851V101.182H639.063V102.85H639.178C639.404 102.3 639.764 101.864 640.258 101.54C640.757 101.216 641.372 101.054 642.105 101.054C642.783 101.054 643.373 101.199 643.876 101.489C644.383 101.778 644.775 102.198 645.052 102.748C645.333 103.298 645.472 103.964 645.468 104.749V111H643.154V105.107C643.154 104.45 642.983 103.937 642.642 103.566C642.306 103.195 641.839 103.01 641.242 103.01C640.838 103.01 640.477 103.099 640.162 103.278C639.851 103.453 639.606 103.707 639.427 104.039C639.252 104.371 639.165 104.774 639.165 105.247ZM664.084 104.455C664.084 105.865 663.82 107.073 663.292 108.079C662.768 109.08 662.052 109.847 661.144 110.38C660.241 110.913 659.216 111.179 658.069 111.179C656.923 111.179 655.896 110.913 654.988 110.38C654.085 109.843 653.369 109.074 652.841 108.072C652.317 107.067 652.055 105.861 652.055 104.455C652.055 103.044 652.317 101.838 652.841 100.837C653.369 99.831 654.085 99.0618 654.988 98.5291C655.896 97.9964 656.923 97.7301 658.069 97.7301C659.216 97.7301 660.241 97.9964 661.144 98.5291C662.052 99.0618 662.768 99.831 663.292 100.837C663.82 101.838 664.084 103.044 664.084 104.455ZM661.7 104.455C661.7 103.462 661.545 102.624 661.233 101.942C660.927 101.256 660.501 100.739 659.955 100.389C659.41 100.036 658.781 99.8587 658.069 99.8587C657.358 99.8587 656.729 100.036 656.184 100.389C655.638 100.739 655.21 101.256 654.899 101.942C654.592 102.624 654.439 103.462 654.439 104.455C654.439 105.447 654.592 106.287 654.899 106.973C655.21 107.655 655.638 108.173 656.184 108.526C656.729 108.876 657.358 109.05 658.069 109.05C658.781 109.05 659.41 108.876 659.955 108.526C660.501 108.173 660.927 107.655 661.233 106.973C661.545 106.287 661.7 105.447 661.7 104.455ZM668.538 105.247V111H666.224V101.182H668.436V102.85H668.551C668.777 102.3 669.137 101.864 669.631 101.54C670.13 101.216 670.745 101.054 671.478 101.054C672.156 101.054 672.746 101.199 673.249 101.489C673.756 101.778 674.148 102.198 674.425 102.748C674.706 103.298 674.845 103.964 674.841 104.749V111H672.527V105.107C672.527 104.45 672.356 103.937 672.015 103.566C671.679 103.195 671.212 103.01 670.615 103.01C670.211 103.01 669.85 103.099 669.535 103.278C669.224 103.453 668.979 103.707 668.8 104.039C668.625 104.371 668.538 104.774 668.538 105.247ZM681.76 111V97.9091H686.669C687.675 97.9091 688.518 98.0966 689.2 98.4716C689.886 98.8466 690.404 99.3622 690.754 100.018C691.107 100.67 691.284 101.412 691.284 102.243C691.284 103.082 691.107 103.828 690.754 104.48C690.4 105.132 689.878 105.646 689.188 106.021C688.497 106.391 687.647 106.577 686.637 106.577H683.384V104.627H686.317C686.906 104.627 687.387 104.525 687.762 104.32C688.137 104.116 688.414 103.835 688.593 103.477C688.776 103.119 688.868 102.707 688.868 102.243C688.868 101.778 688.776 101.369 688.593 101.016C688.414 100.662 688.135 100.387 687.756 100.191C687.381 99.9908 686.897 99.8906 686.305 99.8906H684.131V111H681.76ZM695.891 111.198C695.269 111.198 694.709 111.087 694.21 110.866C693.716 110.64 693.324 110.308 693.034 109.869C692.748 109.43 692.606 108.888 692.606 108.245C692.606 107.691 692.708 107.233 692.912 106.871C693.117 106.509 693.396 106.219 693.75 106.001C694.104 105.784 694.502 105.62 694.945 105.509C695.393 105.394 695.855 105.311 696.332 105.26C696.907 105.2 697.374 105.147 697.732 105.1C698.09 105.049 698.35 104.972 698.512 104.87C698.678 104.763 698.761 104.599 698.761 104.378V104.339C698.761 103.858 698.618 103.485 698.333 103.221C698.047 102.957 697.636 102.825 697.099 102.825C696.532 102.825 696.083 102.948 695.751 103.195C695.422 103.442 695.201 103.734 695.086 104.071L692.925 103.764C693.096 103.168 693.377 102.669 693.769 102.268C694.161 101.864 694.64 101.561 695.207 101.361C695.774 101.156 696.4 101.054 697.086 101.054C697.559 101.054 698.03 101.109 698.499 101.22C698.968 101.331 699.396 101.514 699.784 101.77C700.172 102.021 700.483 102.364 700.717 102.799C700.956 103.234 701.075 103.777 701.075 104.429V111H698.851V109.651H698.774C698.633 109.924 698.435 110.18 698.18 110.418C697.928 110.653 697.611 110.842 697.227 110.987C696.848 111.128 696.403 111.198 695.891 111.198ZM696.492 109.498C696.956 109.498 697.359 109.406 697.7 109.223C698.041 109.036 698.303 108.788 698.486 108.482C698.674 108.175 698.768 107.84 698.768 107.478V106.321C698.695 106.381 698.572 106.436 698.397 106.487C698.226 106.538 698.035 106.583 697.822 106.621C697.608 106.66 697.398 106.694 697.189 106.724C696.98 106.754 696.799 106.779 696.645 106.8C696.3 106.847 695.991 106.924 695.719 107.031C695.446 107.137 695.231 107.286 695.073 107.478C694.915 107.665 694.836 107.908 694.836 108.207C694.836 108.633 694.992 108.955 695.303 109.172C695.614 109.389 696.01 109.498 696.492 109.498ZM703.402 114.682V101.182H705.677V102.805H705.812C705.931 102.567 706.099 102.313 706.317 102.045C706.534 101.772 706.828 101.54 707.199 101.348C707.569 101.152 708.042 101.054 708.618 101.054C709.376 101.054 710.06 101.248 710.67 101.636C711.283 102.019 711.769 102.588 712.127 103.342C712.489 104.092 712.67 105.013 712.67 106.104C712.67 107.182 712.493 108.098 712.14 108.852C711.786 109.607 711.305 110.182 710.695 110.578C710.086 110.974 709.395 111.173 708.624 111.173C708.062 111.173 707.595 111.079 707.224 110.891C706.854 110.704 706.555 110.478 706.329 110.214C706.108 109.945 705.935 109.692 705.812 109.453H705.716V114.682H703.402ZM705.671 106.091C705.671 106.726 705.76 107.282 705.939 107.759C706.123 108.237 706.385 108.609 706.726 108.878C707.071 109.142 707.488 109.274 707.979 109.274C708.49 109.274 708.918 109.138 709.263 108.865C709.608 108.588 709.868 108.211 710.043 107.734C710.222 107.252 710.312 106.705 710.312 106.091C710.312 105.482 710.224 104.94 710.05 104.467C709.875 103.994 709.615 103.624 709.27 103.355C708.925 103.087 708.494 102.952 707.979 102.952C707.484 102.952 707.064 103.082 706.719 103.342C706.374 103.602 706.112 103.967 705.933 104.435C705.758 104.904 705.671 105.456 705.671 106.091ZM718.998 111.192C718.014 111.192 717.164 110.987 716.448 110.578C715.736 110.165 715.189 109.581 714.805 108.827C714.422 108.068 714.23 107.175 714.23 106.148C714.23 105.138 714.422 104.252 714.805 103.489C715.193 102.722 715.734 102.126 716.429 101.7C717.123 101.269 717.939 101.054 718.877 101.054C719.482 101.054 720.053 101.152 720.59 101.348C721.131 101.54 721.608 101.838 722.022 102.243C722.439 102.648 722.768 103.163 723.006 103.79C723.245 104.412 723.364 105.153 723.364 106.014V106.724H715.317V105.164H721.146C721.142 104.721 721.046 104.327 720.858 103.982C720.671 103.632 720.409 103.357 720.072 103.157C719.74 102.957 719.352 102.857 718.909 102.857C718.436 102.857 718.02 102.972 717.662 103.202C717.305 103.428 717.025 103.726 716.825 104.097C716.629 104.463 716.529 104.866 716.525 105.305V106.666C716.525 107.237 716.629 107.727 716.838 108.136C717.047 108.541 717.339 108.852 717.714 109.07C718.089 109.283 718.528 109.389 719.03 109.389C719.367 109.389 719.672 109.342 719.944 109.249C720.217 109.151 720.454 109.008 720.654 108.82C720.854 108.633 721.006 108.401 721.108 108.124L723.268 108.366C723.132 108.937 722.872 109.436 722.488 109.862C722.109 110.284 721.623 110.612 721.031 110.847C720.439 111.077 719.761 111.192 718.998 111.192ZM725.322 111V101.182H727.565V102.818H727.668C727.847 102.251 728.153 101.815 728.588 101.508C729.027 101.197 729.528 101.041 730.09 101.041C730.218 101.041 730.361 101.048 730.518 101.06C730.68 101.069 730.815 101.084 730.921 101.105V103.234C730.823 103.2 730.668 103.17 730.455 103.144C730.246 103.114 730.043 103.099 729.847 103.099C729.425 103.099 729.046 103.191 728.71 103.374C728.377 103.553 728.115 103.803 727.923 104.122C727.732 104.442 727.636 104.81 727.636 105.228V111H725.322ZM734.772 97.9091V111H732.458V97.9091H734.772ZM741.498 111.192C740.514 111.192 739.664 110.987 738.948 110.578C738.236 110.165 737.689 109.581 737.305 108.827C736.922 108.068 736.73 107.175 736.73 106.148C736.73 105.138 736.922 104.252 737.305 103.489C737.693 102.722 738.234 102.126 738.929 101.7C739.623 101.269 740.439 101.054 741.377 101.054C741.982 101.054 742.553 101.152 743.09 101.348C743.631 101.54 744.108 101.838 744.522 102.243C744.939 102.648 745.268 103.163 745.506 103.79C745.745 104.412 745.864 105.153 745.864 106.014V106.724H737.817V105.164H743.646C743.642 104.721 743.546 104.327 743.358 103.982C743.171 103.632 742.909 103.357 742.572 103.157C742.24 102.957 741.852 102.857 741.409 102.857C740.936 102.857 740.52 102.972 740.162 103.202C739.805 103.428 739.525 103.726 739.325 104.097C739.129 104.463 739.029 104.866 739.025 105.305V106.666C739.025 107.237 739.129 107.727 739.338 108.136C739.547 108.541 739.839 108.852 740.214 109.07C740.589 109.283 741.028 109.389 741.53 109.389C741.867 109.389 742.172 109.342 742.444 109.249C742.717 109.151 742.954 109.008 743.154 108.82C743.354 108.633 743.506 108.401 743.608 108.124L745.768 108.366C745.632 108.937 745.372 109.436 744.988 109.862C744.609 110.284 744.123 110.612 743.531 110.847C742.939 111.077 742.261 111.192 741.498 111.192ZM755.582 103.777L753.472 104.007C753.413 103.794 753.308 103.594 753.159 103.406C753.014 103.219 752.818 103.067 752.571 102.952C752.324 102.837 752.021 102.78 751.663 102.78C751.182 102.78 750.777 102.884 750.449 103.093C750.125 103.302 749.965 103.572 749.969 103.905C749.965 104.19 750.07 104.423 750.283 104.602C750.5 104.781 750.858 104.928 751.357 105.043L753.031 105.401C753.96 105.601 754.651 105.918 755.102 106.353C755.558 106.788 755.788 107.357 755.793 108.06C755.788 108.678 755.607 109.223 755.249 109.696C754.896 110.165 754.403 110.531 753.773 110.795C753.142 111.06 752.418 111.192 751.599 111.192C750.398 111.192 749.43 110.94 748.697 110.438C747.964 109.93 747.528 109.225 747.387 108.322L749.643 108.104C749.746 108.548 749.963 108.882 750.295 109.108C750.628 109.334 751.06 109.447 751.593 109.447C752.143 109.447 752.584 109.334 752.916 109.108C753.253 108.882 753.421 108.603 753.421 108.271C753.421 107.989 753.313 107.757 753.095 107.574C752.882 107.391 752.55 107.25 752.098 107.152L750.423 106.8C749.482 106.604 748.785 106.274 748.333 105.81C747.881 105.341 747.658 104.749 747.662 104.033C747.658 103.428 747.822 102.903 748.154 102.46C748.491 102.013 748.957 101.668 749.554 101.425C750.155 101.178 750.847 101.054 751.631 101.054C752.782 101.054 753.688 101.299 754.348 101.789C755.013 102.279 755.424 102.942 755.582 103.777ZM765.461 103.777L763.351 104.007C763.292 103.794 763.187 103.594 763.038 103.406C762.893 103.219 762.697 103.067 762.45 102.952C762.203 102.837 761.9 102.78 761.542 102.78C761.061 102.78 760.656 102.884 760.328 103.093C760.004 103.302 759.844 103.572 759.848 103.905C759.844 104.19 759.949 104.423 760.162 104.602C760.379 104.781 760.737 104.928 761.235 105.043L762.91 105.401C763.839 105.601 764.529 105.918 764.981 106.353C765.437 106.788 765.667 107.357 765.672 108.06C765.667 108.678 765.486 109.223 765.128 109.696C764.775 110.165 764.282 110.531 763.652 110.795C763.021 111.06 762.297 111.192 761.478 111.192C760.277 111.192 759.309 110.94 758.576 110.438C757.843 109.93 757.407 109.225 757.266 108.322L759.522 108.104C759.625 108.548 759.842 108.882 760.174 109.108C760.507 109.334 760.939 109.447 761.472 109.447C762.022 109.447 762.463 109.334 762.795 109.108C763.132 108.882 763.3 108.603 763.3 108.271C763.3 107.989 763.191 107.757 762.974 107.574C762.761 107.391 762.429 107.25 761.977 107.152L760.302 106.8C759.36 106.604 758.664 106.274 758.212 105.81C757.76 105.341 757.537 104.749 757.541 104.033C757.537 103.428 757.701 102.903 758.033 102.46C758.37 102.013 758.836 101.668 759.433 101.425C760.034 101.178 760.726 101.054 761.51 101.054C762.661 101.054 763.566 101.299 764.227 101.789C764.892 102.279 765.303 102.942 765.461 103.777ZM772.147 111V97.9091H777.056C778.061 97.9091 778.905 98.0966 779.587 98.4716C780.273 98.8466 780.791 99.3622 781.14 100.018C781.494 100.67 781.671 101.412 781.671 102.243C781.671 103.082 781.494 103.828 781.14 104.48C780.787 105.132 780.265 105.646 779.574 106.021C778.884 106.391 778.034 106.577 777.024 106.577H773.77V104.627H776.704C777.292 104.627 777.774 104.525 778.149 104.32C778.524 104.116 778.801 103.835 778.98 103.477C779.163 103.119 779.255 102.707 779.255 102.243C779.255 101.778 779.163 101.369 778.98 101.016C778.801 100.662 778.522 100.387 778.142 100.191C777.767 99.9908 777.284 99.8906 776.691 99.8906H774.518V111H772.147ZM787.77 111.192C786.812 111.192 785.981 110.981 785.278 110.559C784.574 110.137 784.029 109.547 783.641 108.788C783.258 108.03 783.066 107.143 783.066 106.129C783.066 105.115 783.258 104.227 783.641 103.464C784.029 102.701 784.574 102.109 785.278 101.687C785.981 101.265 786.812 101.054 787.77 101.054C788.729 101.054 789.56 101.265 790.263 101.687C790.966 102.109 791.51 102.701 791.893 103.464C792.281 104.227 792.475 105.115 792.475 106.129C792.475 107.143 792.281 108.03 791.893 108.788C791.51 109.547 790.966 110.137 790.263 110.559C789.56 110.981 788.729 111.192 787.77 111.192ZM787.783 109.338C788.303 109.338 788.738 109.195 789.087 108.91C789.437 108.62 789.697 108.232 789.867 107.746C790.042 107.261 790.129 106.719 790.129 106.123C790.129 105.522 790.042 104.979 789.867 104.493C789.697 104.003 789.437 103.613 789.087 103.323C788.738 103.033 788.303 102.888 787.783 102.888C787.251 102.888 786.807 103.033 786.454 103.323C786.104 103.613 785.842 104.003 785.667 104.493C785.497 104.979 785.412 105.522 785.412 106.123C785.412 106.719 785.497 107.261 785.667 107.746C785.842 108.232 786.104 108.62 786.454 108.91C786.807 109.195 787.251 109.338 787.783 109.338ZM796.753 97.9091V111H794.439V97.9091H796.753ZM799.132 111V101.182H801.446V111H799.132ZM800.296 99.7884C799.929 99.7884 799.614 99.6669 799.35 99.424C799.085 99.1768 798.953 98.8807 798.953 98.5355C798.953 98.1861 799.085 97.8899 799.35 97.647C799.614 97.3999 799.929 97.2763 800.296 97.2763C800.666 97.2763 800.982 97.3999 801.242 97.647C801.506 97.8899 801.638 98.1861 801.638 98.5355C801.638 98.8807 801.506 99.1768 801.242 99.424C800.982 99.6669 800.666 99.7884 800.296 99.7884ZM808.108 111.192C807.128 111.192 806.287 110.977 805.583 110.546C804.885 110.116 804.346 109.521 803.966 108.763C803.591 108 803.404 107.122 803.404 106.129C803.404 105.132 803.596 104.252 803.979 103.489C804.363 102.722 804.904 102.126 805.603 101.7C806.306 101.269 807.137 101.054 808.096 101.054C808.892 101.054 809.598 101.201 810.211 101.495C810.829 101.785 811.321 102.196 811.688 102.729C812.054 103.257 812.263 103.875 812.314 104.582H810.103C810.013 104.109 809.8 103.715 809.463 103.4C809.131 103.08 808.686 102.92 808.127 102.92C807.654 102.92 807.239 103.048 806.881 103.304C806.523 103.555 806.244 103.918 806.044 104.391C805.848 104.864 805.75 105.43 805.75 106.091C805.75 106.76 805.848 107.335 806.044 107.817C806.24 108.294 806.515 108.663 806.868 108.923C807.226 109.178 807.646 109.306 808.127 109.306C808.468 109.306 808.773 109.242 809.042 109.114C809.314 108.982 809.542 108.793 809.725 108.545C809.909 108.298 810.034 107.998 810.103 107.644H812.314C812.259 108.339 812.054 108.955 811.701 109.491C811.347 110.024 810.865 110.442 810.256 110.744C809.647 111.043 808.931 111.192 808.108 111.192ZM815.653 114.682C815.337 114.682 815.045 114.656 814.777 114.605C814.513 114.558 814.302 114.503 814.144 114.439L814.681 112.636C815.018 112.734 815.318 112.781 815.582 112.777C815.846 112.773 816.079 112.69 816.279 112.528C816.483 112.37 816.656 112.106 816.797 111.735L816.995 111.205L813.434 101.182H815.889L818.152 108.597H818.254L820.523 101.182H822.984L819.053 112.189C818.87 112.709 818.627 113.154 818.324 113.525C818.022 113.9 817.651 114.185 817.212 114.381C816.778 114.582 816.258 114.682 815.653 114.682Z" fill="#717171"/>
<g clip-path="url(#clip3_1392_13592)">
<path d="M905.3 66.0996H953.7C957.028 66.0996 959.75 68.8221 959.75 72.1496V156.85C959.75 160.177 957.028 162.9 953.7 162.9H905.3C901.973 162.9 899.25 160.177 899.25 156.85V72.1496C899.25 68.8221 901.973 66.0996 905.3 66.0996ZM947.65 138.7V78.1996H911.35V138.7H947.65ZM917.4 84.2496H941.6L917.4 114.5V84.2496Z" fill="#00B596"/>
</g>
<path d="M991.291 105V91.9091H996.2C997.206 91.9091 998.05 92.0966 998.732 92.4716C999.418 92.8466 999.935 93.3622 1000.28 94.0185C1000.64 94.6705 1000.82 95.4119 1000.82 96.2429C1000.82 97.0824 1000.64 97.8281 1000.28 98.4801C999.931 99.1321 999.409 99.6456 998.719 100.021C998.028 100.391 997.178 100.577 996.168 100.577H992.915V98.6271H995.849C996.437 98.6271 996.918 98.5249 997.293 98.3203C997.668 98.1158 997.945 97.8345 998.124 97.4766C998.308 97.1186 998.399 96.7074 998.399 96.2429C998.399 95.7784 998.308 95.3693 998.124 95.0156C997.945 94.6619 997.666 94.3871 997.287 94.1911C996.912 93.9908 996.428 93.8906 995.836 93.8906H993.663V105H991.291ZM1006.91 105.192C1005.96 105.192 1005.13 104.981 1004.42 104.559C1003.72 104.137 1003.17 103.547 1002.79 102.788C1002.4 102.03 1002.21 101.143 1002.21 100.129C1002.21 99.1151 1002.4 98.2266 1002.79 97.4638C1003.17 96.701 1003.72 96.1087 1004.42 95.6868C1005.13 95.2649 1005.96 95.054 1006.91 95.054C1007.87 95.054 1008.7 95.2649 1009.41 95.6868C1010.11 96.1087 1010.65 96.701 1011.04 97.4638C1011.43 98.2266 1011.62 99.1151 1011.62 100.129C1011.62 101.143 1011.43 102.03 1011.04 102.788C1010.65 103.547 1010.11 104.137 1009.41 104.559C1008.7 104.981 1007.87 105.192 1006.91 105.192ZM1006.93 103.338C1007.45 103.338 1007.88 103.195 1008.23 102.91C1008.58 102.62 1008.84 102.232 1009.01 101.746C1009.19 101.261 1009.27 100.719 1009.27 100.123C1009.27 99.522 1009.19 98.9787 1009.01 98.4929C1008.84 98.0028 1008.58 97.6129 1008.23 97.3232C1007.88 97.0334 1007.45 96.8885 1006.93 96.8885C1006.4 96.8885 1005.95 97.0334 1005.6 97.3232C1005.25 97.6129 1004.99 98.0028 1004.81 98.4929C1004.64 98.9787 1004.56 99.522 1004.56 100.123C1004.56 100.719 1004.64 101.261 1004.81 101.746C1004.99 102.232 1005.25 102.62 1005.6 102.91C1005.95 103.195 1006.4 103.338 1006.93 103.338ZM1013.58 108.682V95.1818H1015.86V96.8054H1015.99C1016.11 96.5668 1016.28 96.3132 1016.5 96.0447C1016.72 95.772 1017.01 95.5398 1017.38 95.348C1017.75 95.152 1018.22 95.054 1018.8 95.054C1019.56 95.054 1020.24 95.2479 1020.85 95.6357C1021.46 96.0192 1021.95 96.5881 1022.31 97.3423C1022.67 98.0923 1022.85 99.0128 1022.85 100.104C1022.85 101.182 1022.68 102.098 1022.32 102.852C1021.97 103.607 1021.49 104.182 1020.88 104.578C1020.27 104.974 1019.58 105.173 1018.81 105.173C1018.24 105.173 1017.78 105.079 1017.41 104.891C1017.04 104.704 1016.74 104.478 1016.51 104.214C1016.29 103.945 1016.12 103.692 1015.99 103.453H1015.9V108.682H1013.58ZM1015.85 100.091C1015.85 100.726 1015.94 101.282 1016.12 101.759C1016.3 102.237 1016.57 102.609 1016.91 102.878C1017.25 103.142 1017.67 103.274 1018.16 103.274C1018.67 103.274 1019.1 103.138 1019.44 102.865C1019.79 102.588 1020.05 102.211 1020.22 101.734C1020.4 101.252 1020.49 100.705 1020.49 100.091C1020.49 99.4815 1020.41 98.9403 1020.23 98.4673C1020.06 97.9943 1019.8 97.6236 1019.45 97.3551C1019.11 97.0866 1018.68 96.9524 1018.16 96.9524C1017.67 96.9524 1017.25 97.0824 1016.9 97.3423C1016.56 97.6023 1016.29 97.9666 1016.11 98.4354C1015.94 98.9041 1015.85 99.456 1015.85 100.091ZM1031.09 100.871V95.1818H1033.41V105H1031.16V103.255H1031.06C1030.84 103.805 1030.47 104.254 1029.97 104.604C1029.46 104.953 1028.84 105.128 1028.11 105.128C1027.46 105.128 1026.89 104.985 1026.4 104.7C1025.91 104.41 1025.53 103.99 1025.25 103.44C1024.97 102.886 1024.83 102.217 1024.83 101.433V95.1818H1027.15V101.075C1027.15 101.697 1027.32 102.192 1027.66 102.558C1028 102.925 1028.45 103.108 1029 103.108C1029.34 103.108 1029.67 103.025 1029.99 102.859C1030.31 102.692 1030.57 102.445 1030.78 102.117C1030.99 101.785 1031.09 101.369 1031.09 100.871ZM1038.1 91.9091V105H1035.78V91.9091H1038.1ZM1043.3 105.198C1042.68 105.198 1042.12 105.087 1041.62 104.866C1041.13 104.64 1040.74 104.308 1040.45 103.869C1040.16 103.43 1040.02 102.888 1040.02 102.245C1040.02 101.691 1040.12 101.233 1040.32 100.871C1040.53 100.509 1040.81 100.219 1041.16 100.001C1041.52 99.7841 1041.91 99.62 1042.36 99.5092C1042.8 99.3942 1043.27 99.3111 1043.74 99.2599C1044.32 99.2003 1044.79 99.147 1045.14 99.1001C1045.5 99.049 1045.76 98.9723 1045.92 98.87C1046.09 98.7635 1046.17 98.5994 1046.17 98.3778V98.3395C1046.17 97.858 1046.03 97.4851 1045.75 97.2209C1045.46 96.9567 1045.05 96.8246 1044.51 96.8246C1043.94 96.8246 1043.5 96.9482 1043.16 97.1953C1042.83 97.4425 1042.61 97.7344 1042.5 98.071L1040.34 97.7642C1040.51 97.1676 1040.79 96.669 1041.18 96.2685C1041.57 95.8636 1042.05 95.5611 1042.62 95.3608C1043.19 95.1562 1043.81 95.054 1044.5 95.054C1044.97 95.054 1045.44 95.1094 1045.91 95.2202C1046.38 95.331 1046.81 95.5142 1047.2 95.7699C1047.58 96.0213 1047.89 96.3643 1048.13 96.799C1048.37 97.2337 1048.49 97.777 1048.49 98.429V105H1046.26V103.651H1046.19C1046.05 103.924 1045.85 104.18 1045.59 104.418C1045.34 104.653 1045.02 104.842 1044.64 104.987C1044.26 105.128 1043.81 105.198 1043.3 105.198ZM1043.9 103.498C1044.37 103.498 1044.77 103.406 1045.11 103.223C1045.45 103.036 1045.72 102.788 1045.9 102.482C1046.09 102.175 1046.18 101.84 1046.18 101.478V100.321C1046.11 100.381 1045.98 100.436 1045.81 100.487C1045.64 100.538 1045.45 100.583 1045.23 100.621C1045.02 100.66 1044.81 100.694 1044.6 100.724C1044.39 100.754 1044.21 100.779 1044.06 100.8C1043.71 100.847 1043.4 100.924 1043.13 101.031C1042.86 101.137 1042.64 101.286 1042.49 101.478C1042.33 101.665 1042.25 101.908 1042.25 102.207C1042.25 102.633 1042.4 102.955 1042.72 103.172C1043.03 103.389 1043.42 103.498 1043.9 103.498ZM1050.81 105V95.1818H1053.06V96.8182H1053.16C1053.34 96.2514 1053.65 95.8146 1054.08 95.5078C1054.52 95.1967 1055.02 95.0412 1055.58 95.0412C1055.71 95.0412 1055.85 95.0476 1056.01 95.0604C1056.17 95.0689 1056.31 95.0838 1056.41 95.1051V97.2337C1056.32 97.1996 1056.16 97.1697 1055.95 97.1442C1055.74 97.1143 1055.54 97.0994 1055.34 97.0994C1054.92 97.0994 1054.54 97.1911 1054.2 97.3743C1053.87 97.5533 1053.61 97.8026 1053.42 98.1222C1053.22 98.4418 1053.13 98.8104 1053.13 99.228V105H1050.81ZM1057.95 105V95.1818H1060.26V105H1057.95ZM1059.11 93.7884C1058.75 93.7884 1058.43 93.6669 1058.17 93.424C1057.9 93.1768 1057.77 92.8807 1057.77 92.5355C1057.77 92.1861 1057.9 91.8899 1058.17 91.647C1058.43 91.3999 1058.75 91.2763 1059.11 91.2763C1059.48 91.2763 1059.8 91.3999 1060.06 91.647C1060.32 91.8899 1060.46 92.1861 1060.46 92.5355C1060.46 92.8807 1060.32 93.1768 1060.06 93.424C1059.8 93.6669 1059.48 93.7884 1059.11 93.7884ZM1067.55 95.1818V96.9716H1061.9V95.1818H1067.55ZM1063.3 92.8295H1065.61V102.047C1065.61 102.358 1065.66 102.597 1065.75 102.763C1065.85 102.925 1065.98 103.036 1066.13 103.095C1066.29 103.155 1066.47 103.185 1066.66 103.185C1066.8 103.185 1066.94 103.174 1067.05 103.153C1067.18 103.131 1067.27 103.112 1067.34 103.095L1067.73 104.904C1067.6 104.947 1067.43 104.994 1067.2 105.045C1066.97 105.096 1066.69 105.126 1066.36 105.134C1065.78 105.151 1065.26 105.064 1064.8 104.872C1064.33 104.676 1063.97 104.374 1063.69 103.964C1063.42 103.555 1063.29 103.044 1063.3 102.43V92.8295ZM1070.92 108.682C1070.6 108.682 1070.31 108.656 1070.04 108.605C1069.78 108.558 1069.57 108.503 1069.41 108.439L1069.95 106.636C1070.29 106.734 1070.59 106.781 1070.85 106.777C1071.11 106.773 1071.35 106.69 1071.55 106.528C1071.75 106.37 1071.92 106.106 1072.06 105.735L1072.26 105.205L1068.7 95.1818H1071.16L1073.42 102.597H1073.52L1075.79 95.1818H1078.25L1074.32 106.189C1074.14 106.709 1073.89 107.154 1073.59 107.525C1073.29 107.9 1072.92 108.185 1072.48 108.381C1072.05 108.582 1071.53 108.682 1070.92 108.682ZM1088.6 105.192C1087.64 105.192 1086.81 104.981 1086.11 104.559C1085.4 104.137 1084.86 103.547 1084.47 102.788C1084.09 102.03 1083.9 101.143 1083.9 100.129C1083.9 99.1151 1084.09 98.2266 1084.47 97.4638C1084.86 96.701 1085.4 96.1087 1086.11 95.6868C1086.81 95.2649 1087.64 95.054 1088.6 95.054C1089.56 95.054 1090.39 95.2649 1091.09 95.6868C1091.8 96.1087 1092.34 96.701 1092.72 97.4638C1093.11 98.2266 1093.31 99.1151 1093.31 100.129C1093.31 101.143 1093.11 102.03 1092.72 102.788C1092.34 103.547 1091.8 104.137 1091.09 104.559C1090.39 104.981 1089.56 105.192 1088.6 105.192ZM1088.61 103.338C1089.13 103.338 1089.57 103.195 1089.92 102.91C1090.27 102.62 1090.53 102.232 1090.7 101.746C1090.87 101.261 1090.96 100.719 1090.96 100.123C1090.96 99.522 1090.87 98.9787 1090.7 98.4929C1090.53 98.0028 1090.27 97.6129 1089.92 97.3232C1089.57 97.0334 1089.13 96.8885 1088.61 96.8885C1088.08 96.8885 1087.64 97.0334 1087.28 97.3232C1086.93 97.6129 1086.67 98.0028 1086.5 98.4929C1086.33 98.9787 1086.24 99.522 1086.24 100.123C1086.24 100.719 1086.33 101.261 1086.5 101.746C1086.67 102.232 1086.93 102.62 1087.28 102.91C1087.64 103.195 1088.08 103.338 1088.61 103.338ZM1100.24 95.1818V96.9716H1094.44V95.1818H1100.24ZM1095.89 105V94.255C1095.89 93.5945 1096.03 93.0447 1096.3 92.6058C1096.58 92.1669 1096.95 91.8388 1097.41 91.6214C1097.87 91.4041 1098.39 91.2955 1098.96 91.2955C1099.36 91.2955 1099.71 91.3274 1100.02 91.3913C1100.34 91.4553 1100.57 91.5128 1100.72 91.5639L1100.25 93.3537C1100.16 93.3239 1100.03 93.294 1099.88 93.2642C1099.73 93.2301 1099.57 93.2131 1099.39 93.2131C1098.96 93.2131 1098.65 93.3175 1098.47 93.5263C1098.3 93.7308 1098.21 94.0249 1098.21 94.4084V105H1095.89ZM991.291 113.909H994.193L998.08 123.395H998.233L1002.12 113.909H1005.02V127H1002.75V118.006H1002.62L999.006 126.962H997.306L993.688 117.987H993.567V127H991.291V113.909ZM1011.78 127.192C1010.83 127.192 1009.99 126.981 1009.29 126.559C1008.59 126.137 1008.04 125.547 1007.65 124.788C1007.27 124.03 1007.08 123.143 1007.08 122.129C1007.08 121.115 1007.27 120.227 1007.65 119.464C1008.04 118.701 1008.59 118.109 1009.29 117.687C1009.99 117.265 1010.83 117.054 1011.78 117.054C1012.74 117.054 1013.57 117.265 1014.28 117.687C1014.98 118.109 1015.52 118.701 1015.91 119.464C1016.29 120.227 1016.49 121.115 1016.49 122.129C1016.49 123.143 1016.29 124.03 1015.91 124.788C1015.52 125.547 1014.98 126.137 1014.28 126.559C1013.57 126.981 1012.74 127.192 1011.78 127.192ZM1011.8 125.338C1012.32 125.338 1012.75 125.195 1013.1 124.91C1013.45 124.62 1013.71 124.232 1013.88 123.746C1014.06 123.261 1014.14 122.719 1014.14 122.123C1014.14 121.522 1014.06 120.979 1013.88 120.493C1013.71 120.003 1013.45 119.613 1013.1 119.323C1012.75 119.033 1012.32 118.888 1011.8 118.888C1011.26 118.888 1010.82 119.033 1010.47 119.323C1010.12 119.613 1009.86 120.003 1009.68 120.493C1009.51 120.979 1009.43 121.522 1009.43 122.123C1009.43 122.719 1009.51 123.261 1009.68 123.746C1009.86 124.232 1010.12 124.62 1010.47 124.91C1010.82 125.195 1011.26 125.338 1011.8 125.338ZM1018.55 127V113.909H1020.87V118.805H1020.96C1021.08 118.567 1021.25 118.313 1021.47 118.045C1021.69 117.772 1021.98 117.54 1022.35 117.348C1022.72 117.152 1023.2 117.054 1023.77 117.054C1024.53 117.054 1025.21 117.248 1025.82 117.636C1026.44 118.019 1026.92 118.588 1027.28 119.342C1027.64 120.092 1027.82 121.013 1027.82 122.104C1027.82 123.182 1027.65 124.098 1027.29 124.852C1026.94 125.607 1026.46 126.182 1025.85 126.578C1025.24 126.974 1024.55 127.173 1023.78 127.173C1023.21 127.173 1022.75 127.079 1022.38 126.891C1022.01 126.704 1021.71 126.478 1021.48 126.214C1021.26 125.945 1021.09 125.692 1020.96 125.453H1020.83V127H1018.55ZM1020.82 122.091C1020.82 122.726 1020.91 123.282 1021.09 123.759C1021.28 124.237 1021.54 124.609 1021.88 124.878C1022.22 125.142 1022.64 125.274 1023.13 125.274C1023.64 125.274 1024.07 125.138 1024.42 124.865C1024.76 124.588 1025.02 124.211 1025.2 123.734C1025.38 123.252 1025.46 122.705 1025.46 122.091C1025.46 121.482 1025.38 120.94 1025.2 120.467C1025.03 119.994 1024.77 119.624 1024.42 119.355C1024.08 119.087 1023.65 118.952 1023.13 118.952C1022.64 118.952 1022.22 119.082 1021.87 119.342C1021.53 119.602 1021.27 119.967 1021.09 120.435C1020.91 120.904 1020.82 121.456 1020.82 122.091ZM1029.79 127V117.182H1032.1V127H1029.79ZM1030.95 115.788C1030.59 115.788 1030.27 115.667 1030.01 115.424C1029.74 115.177 1029.61 114.881 1029.61 114.536C1029.61 114.186 1029.74 113.89 1030.01 113.647C1030.27 113.4 1030.59 113.276 1030.95 113.276C1031.32 113.276 1031.64 113.4 1031.9 113.647C1032.16 113.89 1032.3 114.186 1032.3 114.536C1032.3 114.881 1032.16 115.177 1031.9 115.424C1031.64 115.667 1031.32 115.788 1030.95 115.788ZM1036.8 113.909V127H1034.48V113.909H1036.8ZM1043.52 127.192C1042.54 127.192 1041.69 126.987 1040.97 126.578C1040.26 126.165 1039.71 125.581 1039.33 124.827C1038.95 124.068 1038.76 123.175 1038.76 122.148C1038.76 121.138 1038.95 120.252 1039.33 119.489C1039.72 118.722 1040.26 118.126 1040.95 117.7C1041.65 117.269 1042.46 117.054 1043.4 117.054C1044.01 117.054 1044.58 117.152 1045.12 117.348C1045.66 117.54 1046.13 117.838 1046.55 118.243C1046.96 118.648 1047.29 119.163 1047.53 119.79C1047.77 120.412 1047.89 121.153 1047.89 122.014V122.724H1039.84V121.164H1045.67C1045.67 120.721 1045.57 120.327 1045.38 119.982C1045.2 119.632 1044.93 119.357 1044.6 119.157C1044.27 118.957 1043.88 118.857 1043.43 118.857C1042.96 118.857 1042.55 118.972 1042.19 119.202C1041.83 119.428 1041.55 119.726 1041.35 120.097C1041.15 120.463 1041.05 120.866 1041.05 121.305V122.666C1041.05 123.237 1041.15 123.727 1041.36 124.136C1041.57 124.541 1041.86 124.852 1042.24 125.07C1042.61 125.283 1043.05 125.389 1043.56 125.389C1043.89 125.389 1044.2 125.342 1044.47 125.249C1044.74 125.151 1044.98 125.008 1045.18 124.82C1045.38 124.633 1045.53 124.401 1045.63 124.124L1047.79 124.366C1047.66 124.937 1047.4 125.436 1047.01 125.862C1046.63 126.284 1046.15 126.612 1045.56 126.847C1044.96 127.077 1044.29 127.192 1043.52 127.192ZM1058.85 127H1054.41V113.909H1058.94C1060.24 113.909 1061.36 114.171 1062.29 114.695C1063.23 115.215 1063.95 115.963 1064.45 116.939C1064.95 117.915 1065.2 119.082 1065.2 120.442C1065.2 121.805 1064.95 122.977 1064.44 123.957C1063.94 124.937 1063.21 125.69 1062.26 126.214C1061.32 126.738 1060.18 127 1058.85 127ZM1056.79 124.948H1058.74C1059.65 124.948 1060.41 124.782 1061.02 124.45C1061.63 124.113 1062.08 123.612 1062.39 122.947C1062.7 122.278 1062.85 121.443 1062.85 120.442C1062.85 119.44 1062.7 118.609 1062.39 117.949C1062.08 117.284 1061.63 116.788 1061.03 116.46C1060.43 116.127 1059.69 115.961 1058.81 115.961H1056.79V124.948ZM1071.7 127.192C1070.72 127.192 1069.87 126.987 1069.15 126.578C1068.44 126.165 1067.89 125.581 1067.51 124.827C1067.12 124.068 1066.93 123.175 1066.93 122.148C1066.93 121.138 1067.12 120.252 1067.51 119.489C1067.9 118.722 1068.44 118.126 1069.13 117.7C1069.83 117.269 1070.64 117.054 1071.58 117.054C1072.19 117.054 1072.76 117.152 1073.29 117.348C1073.83 117.54 1074.31 117.838 1074.72 118.243C1075.14 118.648 1075.47 119.163 1075.71 119.79C1075.95 120.412 1076.07 121.153 1076.07 122.014V122.724H1068.02V121.164H1073.85C1073.84 120.721 1073.75 120.327 1073.56 119.982C1073.37 119.632 1073.11 119.357 1072.78 119.157C1072.44 118.957 1072.06 118.857 1071.61 118.857C1071.14 118.857 1070.72 118.972 1070.37 119.202C1070.01 119.428 1069.73 119.726 1069.53 120.097C1069.33 120.463 1069.23 120.866 1069.23 121.305V122.666C1069.23 123.237 1069.33 123.727 1069.54 124.136C1069.75 124.541 1070.04 124.852 1070.42 125.07C1070.79 125.283 1071.23 125.389 1071.73 125.389C1072.07 125.389 1072.37 125.342 1072.65 125.249C1072.92 125.151 1073.16 125.008 1073.36 124.82C1073.56 124.633 1073.71 124.401 1073.81 124.124L1075.97 124.366C1075.84 124.937 1075.58 125.436 1075.19 125.862C1074.81 126.284 1074.33 126.612 1073.73 126.847C1073.14 127.077 1072.46 127.192 1071.7 127.192ZM1086.51 117.182L1083.02 127H1080.46L1076.96 117.182H1079.43L1081.69 124.475H1081.79L1084.05 117.182H1086.51ZM1088.11 127V117.182H1090.43V127H1088.11ZM1089.28 115.788C1088.91 115.788 1088.6 115.667 1088.33 115.424C1088.07 115.177 1087.94 114.881 1087.94 114.536C1087.94 114.186 1088.07 113.89 1088.33 113.647C1088.6 113.4 1088.91 113.276 1089.28 113.276C1089.65 113.276 1089.96 113.4 1090.22 113.647C1090.49 113.89 1090.62 114.186 1090.62 114.536C1090.62 114.881 1090.49 115.177 1090.22 115.424C1089.96 115.667 1089.65 115.788 1089.28 115.788ZM1097.09 127.192C1096.11 127.192 1095.27 126.977 1094.57 126.546C1093.87 126.116 1093.33 125.521 1092.95 124.763C1092.57 124 1092.39 123.122 1092.39 122.129C1092.39 121.132 1092.58 120.252 1092.96 119.489C1093.34 118.722 1093.89 118.126 1094.59 117.7C1095.29 117.269 1096.12 117.054 1097.08 117.054C1097.87 117.054 1098.58 117.201 1099.19 117.495C1099.81 117.785 1100.3 118.196 1100.67 118.729C1101.04 119.257 1101.25 119.875 1101.3 120.582H1099.09C1099 120.109 1098.78 119.715 1098.45 119.4C1098.11 119.08 1097.67 118.92 1097.11 118.92C1096.64 118.92 1096.22 119.048 1095.86 119.304C1095.51 119.555 1095.23 119.918 1095.03 120.391C1094.83 120.864 1094.73 121.43 1094.73 122.091C1094.73 122.76 1094.83 123.335 1095.03 123.817C1095.22 124.294 1095.5 124.663 1095.85 124.923C1096.21 125.178 1096.63 125.306 1097.11 125.306C1097.45 125.306 1097.76 125.242 1098.02 125.114C1098.3 124.982 1098.52 124.793 1098.71 124.545C1098.89 124.298 1099.02 123.998 1099.09 123.644H1101.3C1101.24 124.339 1101.04 124.955 1100.68 125.491C1100.33 126.024 1099.85 126.442 1099.24 126.744C1098.63 127.043 1097.91 127.192 1097.09 127.192ZM1107.54 127.192C1106.56 127.192 1105.71 126.987 1104.99 126.578C1104.28 126.165 1103.73 125.581 1103.35 124.827C1102.97 124.068 1102.77 123.175 1102.77 122.148C1102.77 121.138 1102.97 120.252 1103.35 119.489C1103.74 118.722 1104.28 118.126 1104.97 117.7C1105.67 117.269 1106.48 117.054 1107.42 117.054C1108.03 117.054 1108.6 117.152 1109.13 117.348C1109.68 117.54 1110.15 117.838 1110.57 118.243C1110.98 118.648 1111.31 119.163 1111.55 119.79C1111.79 120.412 1111.91 121.153 1111.91 122.014V122.724H1103.86V121.164H1109.69C1109.69 120.721 1109.59 120.327 1109.4 119.982C1109.22 119.632 1108.95 119.357 1108.62 119.157C1108.28 118.957 1107.9 118.857 1107.45 118.857C1106.98 118.857 1106.57 118.972 1106.21 119.202C1105.85 119.428 1105.57 119.726 1105.37 120.097C1105.17 120.463 1105.07 120.866 1105.07 121.305V122.666C1105.07 123.237 1105.17 123.727 1105.38 124.136C1105.59 124.541 1105.88 124.852 1106.26 125.07C1106.63 125.283 1107.07 125.389 1107.58 125.389C1107.91 125.389 1108.22 125.342 1108.49 125.249C1108.76 125.151 1109 125.008 1109.2 124.82C1109.4 124.633 1109.55 124.401 1109.65 124.124L1111.81 124.366C1111.68 124.937 1111.42 125.436 1111.03 125.862C1110.65 126.284 1110.17 126.612 1109.58 126.847C1108.98 127.077 1108.31 127.192 1107.54 127.192ZM1121.63 119.777L1119.52 120.007C1119.46 119.794 1119.35 119.594 1119.2 119.406C1119.06 119.219 1118.86 119.067 1118.62 118.952C1118.37 118.837 1118.07 118.78 1117.71 118.78C1117.23 118.78 1116.82 118.884 1116.49 119.093C1116.17 119.302 1116.01 119.572 1116.01 119.905C1116.01 120.19 1116.11 120.423 1116.33 120.602C1116.54 120.781 1116.9 120.928 1117.4 121.043L1119.08 121.401C1120.01 121.601 1120.7 121.918 1121.15 122.353C1121.6 122.788 1121.83 123.357 1121.84 124.06C1121.83 124.678 1121.65 125.223 1121.29 125.696C1120.94 126.165 1120.45 126.531 1119.82 126.795C1119.19 127.06 1118.46 127.192 1117.64 127.192C1116.44 127.192 1115.48 126.94 1114.74 126.438C1114.01 125.93 1113.57 125.225 1113.43 124.322L1115.69 124.104C1115.79 124.548 1116.01 124.882 1116.34 125.108C1116.67 125.334 1117.11 125.447 1117.64 125.447C1118.19 125.447 1118.63 125.334 1118.96 125.108C1119.3 124.882 1119.47 124.603 1119.47 124.271C1119.47 123.989 1119.36 123.757 1119.14 123.574C1118.93 123.391 1118.59 123.25 1118.14 123.152L1116.47 122.8C1115.53 122.604 1114.83 122.274 1114.38 121.81C1113.93 121.341 1113.7 120.749 1113.71 120.033C1113.7 119.428 1113.87 118.903 1114.2 118.46C1114.54 118.013 1115 117.668 1115.6 117.425C1116.2 117.178 1116.89 117.054 1117.68 117.054C1118.83 117.054 1119.73 117.299 1120.39 117.789C1121.06 118.279 1121.47 118.942 1121.63 119.777Z" fill="#717171"/>
<defs>
<clipPath id="clip0_1392_13592">
<rect width="100" height="100" fill="white" transform="translate(74 64)"/>
</clipPath>
<clipPath id="clip1_1392_13592">
<rect width="110" height="110" fill="white" transform="translate(74 64)"/>
</clipPath>
<clipPath id="clip2_1392_13592">
<rect width="97" height="97" fill="white" transform="translate(483 67)"/>
</clipPath>
<clipPath id="clip3_1392_13592">
<rect width="100" height="100" fill="white" transform="translate(880 65)"/>
</clipPath>
</defs>
</svg>
